<svg xmlns="http://www.w3.org/2000/svg" viewBox="0 0 500 500"><g id="freepik--Floor--inject-252"><path id="freepik--floor--inject-252" d="M79,246.8c-94.45,54.53-94.45,143,0,197.48s247.59,54.53,342,0,94.45-142.95,0-197.48S173.43,192.27,79,246.8Z" style="fill:#fafafa"></path></g><g id="freepik--Plant--inject-252"><g id="freepik--Plants--inject-252"><path d="M108,417.59a.77.77,0,0,1-.33-.57c-2.92-31.75-29.93-54.72-41.46-64.53-1.87-1.58-3.34-2.84-4.29-3.76-4.22-4.13-6.06-9.55-4.9-14.51,1-4.46,4.47-7.94,9.39-9.54,12-3.93,30.94,11,43,34,16.92,32.21,9,56,8.9,56.2a.79.79,0,0,1-.55.5l-9.13,2.35a.81.81,0,0,1-.31,0A.71.71,0,0,1,108,417.59Zm0-58.19c-11.72-22.32-29.79-36.91-41.13-33.23-4.45,1.45-7.42,4.44-8.34,8.41-1,4.42.64,9.28,4.47,13,.9.89,2.36,2.13,4.2,3.69,11.57,9.84,38.51,32.76,41.92,64.66l7.81-2C117.85,410.76,123.39,388.7,108,359.4Z" style="fill:#BA68C8"></path><path d="M113.48,416.39h.11a.79.79,0,0,0,.8-.77c.67-37.08-25-72.81-42.26-80.16a.78.78,0,0,0-1,.41.79.79,0,0,0,.41,1c17.08,7.27,41.94,43.51,41.3,78.68A.8.8,0,0,0,113.48,416.39Z" style="fill:#BA68C8"></path><path d="M117.42,415.38a.7.7,0,0,0,.35,0l6.19-1.87a.78.78,0,0,0,.52-.51c.11-.36,11-35.78,3-83.5-4.09-24.31-18.26-48-33.69-56.38-7.42-4-14.71-4.52-21.67-1.49-3.94,1.71-6.4,4.23-7.33,7.5-2.55,9,6.82,22.47,16.75,36.7,6.94,9.95,14.12,20.25,17.39,29.34a.79.79,0,0,0,1,.47.8.8,0,0,0,.48-1c-3.35-9.28-10.59-19.66-17.59-29.7-9.7-13.92-18.87-27.06-16.52-35.37.8-2.83,2.9-4.95,6.44-6.49,6.49-2.83,13.32-2.35,20.29,1.43,15,8.15,28.87,31.39,32.89,55.26,7.52,44.65-1.65,78.37-2.82,82.37l-5.78,1.75a.78.78,0,0,0-.52,1A.79.79,0,0,0,117.42,415.38Z" style="fill:#BA68C8"></path><path d="M119,392.82H119a.78.78,0,0,0,.85-.72c4.66-57.36-27.33-103.28-36.8-111.17a.79.79,0,0,0-1,1.22c9.33,7.76,40.85,53.09,36.24,109.82A.79.79,0,0,0,119,392.82Z" style="fill:#BA68C8"></path></g></g><g id="freepik--Shadow--inject-252"><path id="freepik--shadow--inject-252" d="M383.94,315.19c-17.86-10.31-44.6-12.36-66-6.16-47.19-13.72-106.21-9.23-145.61,13.52-33.68,19.44-44.28,47.17-31.8,71.82-10,1.35-19.55,4.28-27.37,8.79-22.31,12.88-22.31,33.77,0,46.65s58.48,12.88,80.79,0a39.13,39.13,0,0,0,12.28-10.55c46.93,13.2,105.11,8.56,144.1-13.95,30.26-17.47,41.88-41.63,34.87-64.24C406.23,348.14,405.81,327.82,383.94,315.19Z" style="fill:#e0e0e0"></path></g><g id="freepik--Character--inject-252"><g id="freepik--character--inject-252"><g id="freepik--Chest--inject-252"><path d="M392.78,333.71h0c-12.56-32.11-30.34-62.6-42.69-78.22-18.54-19.62-56.29-16.46-74.27-10.05L292.89,336c0,14.23,21.05,25.77,47,25.77C366.56,361.53,394.11,349.51,392.78,333.71Z" style="fill:#455a64"></path><path d="M372.65,367.91h0c9.31-40.68-18-70.6-26.95-80.65-26-29.19-41.47-51-80.55-39.37-33.67,9.39-65,23.89-88.13,35.3a59.2,59.2,0,0,0-10.18,6.47c-5.59,4.31-9.25,12.8-10.27,18.87-3.25,19.41-5,36.43-6,50.84a40.42,40.42,0,0,0-.32,4.79h0c-2.18,18.95,2.46,30.85,25.85,44.36,46.77,27,116.38,27.17,161.3,3.59C361.55,399.42,372.51,378.68,372.65,367.91Z" style="fill:#37474f"></path><path d="M278.23,250.15,273,246c-2.51.49-5.1,1.12-7.82,1.93-23.79,6.63-46.38,15.81-65.76,24.66,14.2,14.9,51.43,36.84,84.42,23.6C320.9,281.27,278.23,250.15,278.23,250.15Z" style="fill:#455a64"></path><path d="M177,283.19c-34.79,17.1-44.49,23.8-50.91,59.7-4.26,23.81-14,71.05-14.78,76.65s4.89,14.36,13.15,19.13c16.51,9.53,51.54,8.9,68.74-1.8,8-4.95,11.33-11.3,12.38-18.38h0l7-44.23S214.57,303.64,177,283.19Z" style="fill:#455a64"></path></g><g id="freepik--Head--inject-252"><path d="M213.27,63.18a29.42,29.42,0,0,0-1.56-5.65c-6.47-16.85-25.54-19.44-41.42-17.62-15.55,1.79-29.76,10.53-35.11,25.75-5.67,16.14-3.57,36.58,11.59,46.87,14.42,9.79,31.29,5.18,44.28-4.69,7.75-5.9,14.66-13.16,18.82-22A38.3,38.3,0,0,0,213.27,63.18Z" style="fill:#37474f"></path><path d="M193.9,102.05c-5.44,2.32-11,4.22-16.94,4.36a33.78,33.78,0,0,1-16.57-3.77c-5.73-3-10.06-8-13.62-13.33a43.41,43.41,0,0,1-7.47-18.9A28.84,28.84,0,0,1,140,59.74c.63-2.4,1.37-5.19,3.55-6.61a6,6,0,0,1,2.75-.89,22.2,22.2,0,0,1,8.47,1.56,30.33,30.33,0,0,1,8.19,4.51c5.34,4.07,9.3,9.62,12.58,15.4.29.52.59-.18.41-.53-3.18-6.34-7.26-12.45-12.88-16.89a31.63,31.63,0,0,0-8.68-4.93c-3.11-1.13-7-2.43-10.3-1.16-3.06,1.18-4.9,4.92-5.85,7.83A27.59,27.59,0,0,0,137,68.2a43.37,43.37,0,0,0,6.67,19.71c3.59,5.88,8.1,11.52,14,15.24a35.54,35.54,0,0,0,17.52,5.32c6.68.28,14.14-1,19.51-5.21C195.07,102.9,194.45,101.81,193.9,102.05Z" style="fill:#455a64"></path><path d="M162.57,114.44a21.75,21.75,0,0,1-4.64,1.23,18.27,18.27,0,0,1-4.73-.19,30.63,30.63,0,0,1-10.67-4c-5.73-3.48-10.08-9-10.87-15.79-.07-.57-.63-.52-.62,0,.13,7.59,5.14,14.06,11.4,17.9a32.69,32.69,0,0,0,8.41,3.67,31.12,31.12,0,0,1-21.41-6.56c2.18,5.13,6.79,10.81,12.23,12,6.66,1.49,13.28-.78,15.81-4.45,0,0,0-.06,0-.09A12,12,0,0,0,164,116.6C165.11,115.86,163.64,114.1,162.57,114.44Z" style="fill:#37474f"></path><path d="M215.15,58.91a26.79,26.79,0,0,0-1.93-7.47,23.05,23.05,0,0,0-8.14-9.75c-7.9-5.48-17.72-6.45-27-5a69.56,69.56,0,0,0-18.48,5.68c-.27.13-.13.85.2.79,5.24-1.06,10.31-2.82,15.56-3.88a49.4,49.4,0,0,1,15-1.06c7.66.83,15.76,4.43,19.81,11.29a22,22,0,0,1,2.61,7.29,30.32,30.32,0,0,1,.45,4.13c0,.67,0,1.33,0,2,0,1.14.47,2.09.53,3.23,0,.38.72,1.22.86.48s.53-1.36.69-2.07a8.15,8.15,0,0,0,.07-1.91C215.37,61.43,215.29,60.17,215.15,58.91Z" style="fill:#37474f"></path><path d="M194.35,73.29a36.2,36.2,0,0,1-3.73,10.31c-.28.57-.76-.19-.63-.58a57.07,57.07,0,0,0,2.11-10.51,37.55,37.55,0,0,0-.1-10c-1.38-9.84-7.6-19.69-17.28-23-.54-.19-1.09-.36-1.64-.5a22,22,0,0,0-14.76,1.5,19.22,19.22,0,0,0-6.17,4.59c-.3.35-.6.7-.86,1.07h0a38.13,38.13,0,0,0-4.38,3.06,24.53,24.53,0,0,1,2.42-4.41,20,20,0,0,1,7.18-6.27,24.25,24.25,0,0,1,16.42-2.05,25.37,25.37,0,0,1,7.25,2.9,28.74,28.74,0,0,1,7.68,6.64,31.47,31.47,0,0,1,7,17.15A39.43,39.43,0,0,1,194.35,73.29Z" style="fill:#455a64"></path><path d="M137.81,59.86c-4.57,3.69-7.42,9.52-9.12,15a48.55,48.55,0,0,0-2,19.3c.65,6.17,2.88,12.32,7.19,16.9a25.83,25.83,0,0,0,18,7.92,29.7,29.7,0,0,0,9.14-1.22c.76-.22,1.52-.48,2.27-.77,3.73-1.38,7.68-3.4,10.35-6.43.47-.52-.4-1.7-1-1.32-3,1.82-5.84,3.91-9.12,5.31a29.57,29.57,0,0,1-7.77,2.18c-.75.1-1.5.18-2.24.21-6.34.3-13-1.73-17.53-6.34-8.19-8.4-8.12-22.16-5.33-32.79A42.4,42.4,0,0,1,134.41,68Z" style="fill:#455a64"></path><path d="M213.27,63.18a29.42,29.42,0,0,0-1.56-5.65A23.85,23.85,0,0,0,210.59,55l-.48,0a28.8,28.8,0,0,0-10.86,3.15c-6,3-10.95,6.47-14.48,12.16a49.13,49.13,0,0,0-7.49,19.05c-6.12,2.55-13.19,5.49-17.49,10.53a27.43,27.43,0,0,0-6.69,15.93c12.84,5,26.82.44,38-8,.9-.68,1.78-1.38,2.65-2.1,2.42-2.74,4.81-5.51,7.24-8.21,2-2.27,4.14-4.5,6.23-6.74a45.9,45.9,0,0,0,2.7-4.91A38.3,38.3,0,0,0,213.27,63.18Z" style="opacity:0.2"></path><path d="M348.87,178.06c-.74-4.41-1.5-8.12-4.63-11.54A8.85,8.85,0,0,0,341,164.1a10.77,10.77,0,0,0-3.14-.53,39.77,39.77,0,0,0-8.78.39,13.93,13.93,0,0,0,2.83,6.13,41.79,41.79,0,0,1,6.35,9.19,28.57,28.57,0,0,1,2.7,7.49,34.63,34.63,0,0,1,.44,8.57c0,.4.62,1.15.82.48a23.45,23.45,0,0,0,.79-8.5,31.71,31.71,0,0,0-1.87-9.1,26.92,26.92,0,0,0-6.91-10l.95.1A17.59,17.59,0,0,1,348.87,178.06Z" style="fill:#455a64"></path><path d="M208.3,238.35c-.25-6.88-10.24-10.28-14.07-20.21a90.62,90.62,0,0,1-14.15-16.73,120.88,120.88,0,0,1-13.75-27.17c-16.18-14.31-21.16-66.88,16-79.89,14.11-42.57,64.21-43,90.82-38.4,19.69,3.42,31.49,12.64,35.85,21.82,5.08,5.85,8.55,10.09,11.68,15.23,24.76,13.1,17.9,46.46,4.51,58.72Z" style="fill:#37474f"></path><path d="M294.44,63.51a56.05,56.05,0,0,0-15.13-9.34,71.38,71.38,0,0,0-17-5,70.45,70.45,0,0,0-35.53,3.43,68.4,68.4,0,0,0-9.3,4.24q-2.26,1.23-4.43,2.63a19.25,19.25,0,0,0-1.72,1.24,5.43,5.43,0,0,0-1.52,2.12c-.15.31,0,1,.47.94,2.86-.67,5.12-2.51,7.63-4A68.23,68.23,0,0,1,225.74,56a71.81,71.81,0,0,1,15.94-4.59,68.55,68.55,0,0,1,34.64,3.38,73.53,73.53,0,0,1,8.29,3.63c3.35,1.72,6.44,3.8,9.61,5.81C294.58,64.42,294.64,63.69,294.44,63.51Z" style="fill:#37474f"></path><path d="M349.46,109.64c-4.36-7.53-11.95-12.51-20.07-15.19a43.57,43.57,0,0,0-6.64-1.66,33.43,33.43,0,0,0-3.85-.47,11,11,0,0,0-2.15.1,7.82,7.82,0,0,0-2.58,1c-1.21.62.5,2.08,1.35,2a44.89,44.89,0,0,1,5.76.45c1.77.31,3.54.69,5.28,1.17a39.7,39.7,0,0,1,10.14,4.38,30.92,30.92,0,0,1,13.35,16.12,26.23,26.23,0,0,1,1,14.39c0,.2.16.46.28.19C354.6,124.89,353.36,116.38,349.46,109.64Z" style="fill:#37474f"></path><path d="M205.91,226.48a1.56,1.56,0,0,0-1.16-1.81c-2.79-.85-6.27.34-8.76,1.61a20.24,20.24,0,0,0-6.44,5.18c-3.63,4.48-5.05,10.6-2.27,15.9.12.24.26-.14.22-.27-1.38-4.81,1.65-10.23,4.84-13.69a18.69,18.69,0,0,1,5.19-4,12.5,12.5,0,0,1,2-.8l-.23.28a22.49,22.49,0,0,0-5.05,13c-.24,6.57,3.05,13.3,8.71,16.64a38.79,38.79,0,0,1,2.16-28A7,7,0,0,0,205.91,226.48Z" style="fill:#37474f"></path><path d="M239.92,65.72c-1.75-.38-3.51-.67-5.28-.9a62.34,62.34,0,0,0-11-.4c-7.4.38-15.08,1.89-21.63,5.46-.15.08-.15.49.06.43,7.11-2.24,14.22-4.14,21.7-4.5a65,65,0,0,1,11.41.43q2.63.33,5.24.88c1.7.36,3.43,1,5.16,1.21.51.06.33-.83,0-1A25.46,25.46,0,0,0,239.92,65.72Z" style="fill:#455a64"></path><path d="M211.77,82.07c3,.45,5.81,1.36,8.74,2,.73.15.47-1,0-1.17-5.4-2.65-12.15-3.27-18.09-3.08-.66,0-1.33.06-2,.11,1.79-.45,3.59-.84,5.41-1.12,4.95-.74,9.84-.42,14.8-.71.28,0,.23-.61,0-.67-4.89-1.4-10.26-1-15.24-.24a50.88,50.88,0,0,0-7,1.6A19.83,19.83,0,0,0,192.85,81c-1.9.42-4.17,1-5.58,2.36-.25.43-.49.87-.73,1.31.06.3.25.58.52.46a33.24,33.24,0,0,1,3.88-1.78c1.24-.38,2.52-.67,3.79-.93a49,49,0,0,1,17-.37Z" style="fill:#455a64"></path><path d="M171.36,102.24c.58-1.2,1.34-2.31,2-3.48a39,39,0,0,0-3.46,2.54,32.94,32.94,0,0,0-1.73,4.77,29.57,29.57,0,0,0-1,10.63,34.08,34.08,0,0,0,9.23,20.24c.36.38.47-.38.29-.63-4.18-5.72-7.42-12.37-8-19.54a29.15,29.15,0,0,1,.89-9.8A25.57,25.57,0,0,1,171.36,102.24Z" style="fill:#455a64"></path><path d="M241.11,107.45a14.59,14.59,0,0,0-2.84.57,26.1,26.1,0,0,1-2.9.46,20.9,20.9,0,0,1-5.53-.19,20.52,20.52,0,0,1-5-1.53c-.8-.36-1.56-.77-2.33-1.18-1-.51-1.86-1.15-2.83-1.62-.59-.29-.9.49-.66.92,1,1.78,3.16,3.12,4.94,4a22.25,22.25,0,0,0,6.19,1.81,20.44,20.44,0,0,0,5.74,0,22.13,22.13,0,0,0,2.18-.44c-3.4,2.25-7.61,2.57-11.76,2a27.74,27.74,0,0,1-6.6-1.7,76.35,76.35,0,0,1-7.39-3.74c-.53-.28-.39.68-.21.88,3.55,3.94,9.4,5.86,14.52,6.5,4.67.59,11.5.39,13.51-4.63a3.13,3.13,0,0,0,1.5-1A.78.78,0,0,0,241.11,107.45Z" style="fill:#455a64"></path><path d="M274.13,111.52c-1.95-5.81-6.26-11.09-10.69-15.22a46.35,46.35,0,0,0-7.62-5.76,29.49,29.49,0,0,0-8.77-4c-.71-.15-.47.94,0,1.16a90.29,90.29,0,0,1,8.41,4.2,48.9,48.9,0,0,1,7.15,5.34,38.71,38.71,0,0,0-7.67-4.11,60.67,60.67,0,0,0-18.29-4.28c-.48,0-.31.83.06.91,6,1.44,12.06,2.38,17.82,4.68a41.66,41.66,0,0,1,13.38,8.43c.35.44.7.88,1,1.32,1.81,2.43,3.25,5.05,4.82,7.62C274,112.24,274.23,111.82,274.13,111.52Z" style="fill:#455a64"></path><path d="M306.71,85.32a21.31,21.31,0,0,0-4.3-5.34,23.09,23.09,0,0,0-6.49-4.5c-.69-.27-.48.93-.2,1.18,1.66,1.5,3.61,2.67,5.25,4.2a19.34,19.34,0,0,1,4.23,5.61c2.09,4.3,2.16,9.21,3.43,13.76.09.33.53.62.62.12A24,24,0,0,0,306.71,85.32Zm-5.28,2.42a35,35,0,0,0-12.34-11.43c-1-.54-1.19.9-.42,1.32a33,33,0,0,1,11.78,11.06,37.53,37.53,0,0,1,5.76,15.74c0,.29.32.18.32-.07a30.16,30.16,0,0,0-1.36-9A33.43,33.43,0,0,0,301.43,87.74Z" style="fill:#455a64"></path><path d="M331.28,101.54c-.08-.31-.37-.26-.41,0-.46,3.51-1.08,7.05-2.86,10.17a19.43,19.43,0,0,1-7.9,7.69c-.58.3,0,1.55.58,1.28C327.6,117.55,333.16,109.28,331.28,101.54Z" style="fill:#455a64"></path><path d="M170.68,181.71A35.58,35.58,0,0,1,157.59,166c-2.91-6.95-3.45-14.53-2.76-22a98.73,98.73,0,0,1,2.95-15.25c.08-.29-.25-.73-.41-.31-5.21,14.74-6.08,32.61,3.78,45.68a24.59,24.59,0,0,0,9.45,7.9C170.77,182.14,170.79,181.78,170.68,181.71Z" style="fill:#37474f"></path><path d="M167.81,172.6a22,22,0,0,1-6.39-4c-.86-.86-1.61-1.86-2.38-2.79s-1.68-1.92-2.44-3a35.25,35.25,0,0,1-5.73-11.48,31.5,31.5,0,0,1,4.61-25.87,59.18,59.18,0,0,1,4.62-5.86c1.71-1.94,3.79-3.83,4.7-6.29.23-.61-.52-1.48-1.14-1.18a21.57,21.57,0,0,0-6.1,5,68.31,68.31,0,0,0-5,6,35.45,35.45,0,0,0-6.42,14.16c-1.92,9.66.59,20.27,7.44,27.47a26.24,26.24,0,0,0,6.8,5,42.07,42.07,0,0,0,7.38,3.39C168,173.31,168,172.7,167.81,172.6Z" style="fill:#37474f"></path><path d="M328.46,136.05c3.86,13.71,4.69,28,5.59,42.19,2.34,36.59-9.14,58.79-27.46,67.92-6.5,3.25-11.81,5-24.11,4.52l.58,15.54s13.22,12.54-1.38,19.11c-27.78,12.51-64.76-7.72-72.2-16.88L207,204.15c-.91,7.76-13.21,12.48-24.89,2.46-5.23-16.09-14-32.54-4-40.12a15.88,15.88,0,0,1,19.73,0c3.82,3.1,4.25,4.37,6.86,7.88a7.31,7.31,0,0,0,3.86,2.84c6.83,1.2,10.32-5,10.69-9.44a22.59,22.59,0,0,0-.41-5.37c-.42-2.69-1.41-5.94.31-8.31,9.52-13.14,15.86-24.67,18-40.75.2-1.47.45-3.1,1.61-4a4.4,4.4,0,0,1,1.64-.76c2.52-.7,4.55-.19,7,.23a107.17,107.17,0,0,0,28.15,1.32c9.92-.95,20.06-2.93,28.14-8.76,1-.7,2.07-1.49,3.25-1.25a4.48,4.48,0,0,1,2.14,1.64C320.82,114.14,326.53,129.21,328.46,136.05Z" style="fill:#ffa8a7"></path><circle cx="245.81" cy="183.78" r="15.99" transform="translate(-56.32 237.79) rotate(-46.92)" style="fill:#f28f8f"></circle><path d="M314.3,179.49a16,16,0,0,0,16.52,15.44,15.82,15.82,0,0,0,3.33-.47,133.75,133.75,0,0,0-.1-16.22c-.32-5-.63-10-1.07-15.06a16.45,16.45,0,0,0-3.23-.21A16,16,0,0,0,314.3,179.49Z" style="fill:#f28f8f"></path><path d="M328.46,136.05c3.59,11.95,4.76,24.47,5.67,36.86,2.61,26.72-1,61.21-28.3,74-8.68,3.72-14.08,4.23-23.35,3.78,9.24.11,14.52-.61,23.06-4.41,26.71-13.08,29.95-46.85,27.75-73.3-.72-12.4-1.68-24.86-4.83-36.92Z" style="fill:#f28f8f"></path><path d="M282.48,250.68C245.78,248,220.18,233,215.37,219c0,0,2.39,17,14.42,25.93,21.51,15.94,53,15.51,53,15.51Z" style="fill:#f28f8f"></path><path d="M293.67,210.15l-23.42-6.47a11.56,11.56,0,0,0,8,14.83A12.82,12.82,0,0,0,293.67,210.15Z" style="fill:#b16668"></path><path d="M283.46,218.77a12.41,12.41,0,0,1-5.24-.26,11.5,11.5,0,0,1-8.32-9.11A14,14,0,0,1,283.46,218.77Z" style="fill:#f28f8f"></path><path d="M318.27,143.16l-16.86-4.29a8.36,8.36,0,0,1,10.3-6.37A9,9,0,0,1,318.27,143.16Z" style="fill:#263238"></path><path d="M245.66,148.63l15.55-8.29a8.48,8.48,0,0,0-11.68-3.78A9.18,9.18,0,0,0,245.66,148.63Z" style="fill:#263238"></path><path d="M258.48,160.56a7.15,7.15,0,0,0-5.85,6.09,7.25,7.25,0,0,1-2.25,1.63,4.12,4.12,0,0,1-3.95-.24,4.57,4.57,0,0,0,3.18,2.29,5.55,5.55,0,0,0,2.07-.05,5.69,5.69,0,0,0,1.33-.41c1.05,1.82,3.64-1.73,7.08-2.35,3.9-.7,7.41,2.64,6.71-1.23A7.14,7.14,0,0,0,258.48,160.56Z" style="fill:#263238"></path><path d="M315.18,157.88a7.17,7.17,0,0,1,6.76,5.06,7.14,7.14,0,0,0,2.48,1.24,4.13,4.13,0,0,0,3.87-.88,4.57,4.57,0,0,1-2.76,2.78,5.69,5.69,0,0,1-2,.29,5.89,5.89,0,0,1-1.39-.19c-.73,2-3.87-1.11-7.37-1.16-4-.06-6.87,3.82-6.82-.12A7.16,7.16,0,0,1,315.18,157.88Z" style="fill:#263238"></path><path d="M342.63,140c-1.05-.06-2.15-.1-3.28-.12-10.58-.25-24.29.51-32.3,3.54-10,3.81-13.33,7.44-19.05,7.91-6.12.46-10.34-2.59-21.68-4.72-9-1.68-23.63-.22-34.72,1.73-1.19.22-2.34.43-3.44.65-1.9.38-3.73,3-3.3,5.78s2.91,4.89,4,6.1a7.73,7.73,0,0,1,1.4,2.47c1.64,4.32,3.25,12.72,6,17.24a23,23,0,0,0,5.08,6c4.84,4,11.39,5.05,17.57,4.56,14.23-1.06,19.5-8,22.35-14.92s1-16.27,7.53-16.76a5.49,5.49,0,0,1,1.22,0c5,.7,5.25,9.37,8.94,15.35a26.89,26.89,0,0,0,5.34,6.42A20.73,20.73,0,0,0,315.39,186a32,32,0,0,0,7,.12c13.3-1.1,17.13-8.9,18.83-13.77s1.64-13.37,2.26-17.89a5.1,5.1,0,0,1,1-2.41,11.5,11.5,0,0,0,2.34-6.71C346.65,142.47,344.44,140.06,342.63,140ZM277,170.18a19,19,0,0,1-4,9.66h0c-2.75,3.28-7.32,6-15,6.51s-12.53-2.22-15.6-5.6a25.83,25.83,0,0,1-5.09-9.45c-1.57-4.56-3.81-13.61-1.58-15.86s8.48-4.9,19.17-4.74a45.28,45.28,0,0,1,16.9,3.24,10,10,0,0,1,3.42,2.19C277.63,158.82,277.61,164.9,277,170.18Zm61.54-6.82C338,167.05,337.09,175,330,179a19,19,0,0,1-7.71,2.26c-8.37.8-13.45-2.14-16.54-5.73a21.43,21.43,0,0,1-4-7.35c-1.61-5.09-2.81-11.07-1.11-14.08s9.19-6.76,16.62-8.24c1.71-.34,3.32-.58,4.83-.73a29.41,29.41,0,0,1,12,1,10,10,0,0,1,2.78,1.36C339.39,149.37,339.05,158.62,338.49,163.36Z" style="fill:#263238"></path><path d="M230.26,160l-11,5.35L203.72,173a25.75,25.75,0,0,0-4.42-5.25L218.24,158l10.8-5.54Z" style="fill:#263238"></path><path d="M310.24,188.07l-21.18,9-5.66-30.44c.69-3.86,1.71-7,5.4-7.22a5.63,5.63,0,0,1,.92,0,32.84,32.84,0,0,1,4.36,3.64C298.62,167.46,307,179.73,310.24,188.07Z" style="fill:#f28f8f"></path><path d="M279.7,113.17a18.49,18.49,0,0,0-1.54-2.37,3.18,3.18,0,0,1,1.75.36,28.1,28.1,0,0,1,16.48,22,21.34,21.34,0,0,0,2.52-11.75,15,15,0,0,0-9.28-12.73c-4.75-2.15-9.8-4.29-15-3.8-4.34.4-1.4,4.23,0,5.89a21.28,21.28,0,0,1,2.46,3.56,23.19,23.19,0,0,1,2.56,7.36,23.71,23.71,0,0,1-3.16,15.43c-.26.45.36,1.52.82,1a22.07,22.07,0,0,0,5-16.58A22.3,22.3,0,0,0,279.7,113.17Z" style="fill:#37474f"></path><path d="M236,120.26c0-.21-.38-.63-.58-.3-.73,1.19-1,2.56-1.9,3.74a14.91,14.91,0,0,1-2.37,2.59,24.08,24.08,0,0,1-7.47,4.25,37,37,0,0,1-9.35,2.12,31.6,31.6,0,0,1-17.66-3.15c-.2.3.1.69.38.92,7.82,6.44,20,5.38,28.79,1.75a21.22,21.22,0,0,0,7.28-4.61C234.93,125.72,236.55,122.93,236,120.26Z" style="fill:#455a64"></path><path d="M223.54,187.08c-.74-4.41-1.5-8.12-4.63-11.54a9,9,0,0,0-3.27-2.42,10.78,10.78,0,0,0-3.15-.53,39.68,39.68,0,0,0-8.77.39,13.93,13.93,0,0,0,2.83,6.13,42.13,42.13,0,0,1,6.35,9.19,28.57,28.57,0,0,1,2.7,7.49,35.62,35.62,0,0,1,.44,8.57c0,.4.61,1.15.82.48a23.45,23.45,0,0,0,.79-8.5,31.73,31.73,0,0,0-1.88-9.1,26.77,26.77,0,0,0-6.9-10l.95.1A17.61,17.61,0,0,1,223.54,187.08Z" style="fill:#455a64"></path><g id="freepik--Bandana--inject-252"><path d="M194.23,218.14c-8.27-24.92-1.85-88.85,18.2-114.59C268,76.89,307.93,79.87,320.71,93c-2.07-5.83-6.18-11-11.68-15.24C297.83,60.49,254.38,58.1,230.1,69c-10.73,4.83-17.53,10.39-27.35,26.53-1.14,1.85-3.83,3.55-5.41,5.08-1.77,1.73-3.52,3.49-5.21,5.3a120.4,120.4,0,0,0-9.11,10.8,83.19,83.19,0,0,0-12.53,23.93c-3.6,11.13-5.49,24.18-4.22,35.82A27.5,27.5,0,0,0,171,189.87c1.61,2.19,3.64,4,5,6.38s2.12,5.22,3.09,7.87C181.59,210.71,187.87,215.56,194.23,218.14Z" style="fill:#BA68C8"></path><path d="M252.85,81.77a52.12,52.12,0,0,0,4.86-11.07,36.64,36.64,0,0,0,2.14-8.16,92.76,92.76,0,0,0-23.41,4.08c-.91.41-1.81.84-2.69,1.31-3.32,1.76-6.39,4-9.75,5.63-1.73.85-3.52,1.55-5.32,2.23-5.23,4.19-10,10.07-15.93,19.76-1.14,1.85-3.83,3.55-5.41,5.08-1.77,1.73-3.52,3.49-5.21,5.3a120.4,120.4,0,0,0-9.11,10.8c-.24.32-.47.65-.7,1A30.56,30.56,0,0,0,198,110.49a4.27,4.27,0,0,1,1.94-1.18,4.43,4.43,0,0,1,2.08.39,15.78,15.78,0,0,0,5.82.84,58.36,58.36,0,0,1,4.61-7A244.63,244.63,0,0,1,243.38,91.1,32.15,32.15,0,0,0,252.85,81.77Z" style="opacity:0.2"></path><path d="M304.19,75.69c1.69.66,3.36,1.41,5,2.2l-.16-.13a20.76,20.76,0,0,0-2.31-2.89c-.36-.13-.71-.29-1.07-.41a78.22,78.22,0,0,0-11-3c-8.18-1.61-16.68-1.64-25-1.39-.15,0-.19.34,0,.35a185.46,185.46,0,0,1,23.52,2.32A58.34,58.34,0,0,1,304.19,75.69Z" style="opacity:0.1"></path><path d="M178.9,152a74.65,74.65,0,0,0-6.5,32.09c.06,2.7.24,5.4.53,8.08a29.23,29.23,0,0,1,3.15,4.06,20.89,20.89,0,0,1,1.62,3.57c0-.23-.11-.46-.15-.69a86.82,86.82,0,0,1-1.63-15.59,112.93,112.93,0,0,1,3.76-30.84C179.81,152.24,179.22,151.31,178.9,152Z" style="opacity:0.1"></path><path d="M180.46,187.44c-2.2-4.26-2.87-9.11-3.61-13.85a7.69,7.69,0,0,0-1.45-4,13.63,13.63,0,0,0-2.48-1.84c-2.43-1.78-3.68-4.73-4.52-7.62a41.64,41.64,0,0,1-1.25-5.74,81.48,81.48,0,0,0-.88,22.08A27.5,27.5,0,0,0,171,189.87c1.61,2.19,3.64,4,5,6.38s2.12,5.22,3.09,7.87c2.42,6.59,8.7,11.44,15.06,14a77,77,0,0,1-3.15-18.22c-.68-.71-1.38-1.4-2.07-2.09C185.81,194.65,182.52,191.44,180.46,187.44Z" style="opacity:0.1"></path><path d="M166.13,91.79a43,43,0,0,0-24.61,18.74,3.25,3.25,0,0,0-.59,1.57c0,4.68,11.19,6.18,14.39,6.58a51.92,51.92,0,0,0,21.83-2.14,67.35,67.35,0,0,0,18.1-9c2-1.39,4.79-2.8,5.66-5.18,1.13-3.07-1-5.18-3.31-6.89C189.29,89.33,175.75,89,166.13,91.79Z" style="fill:#BA68C8"></path><path d="M166.13,91.79a43,43,0,0,0-24.61,18.74,3.25,3.25,0,0,0-.59,1.57c0,4.68,11.19,6.18,14.39,6.58a51.92,51.92,0,0,0,21.83-2.14,67.35,67.35,0,0,0,18.1-9c2-1.39,4.79-2.8,5.66-5.18,1.13-3.07-1-5.18-3.31-6.89C189.29,89.33,175.75,89,166.13,91.79Z" style="opacity:0.2"></path><path d="M196.32,100c-1.34-2.39-5.52-2-7.79-1.94a81.28,81.28,0,0,0-13,1.41c-3.45.73-7.79,1.26-10.68,3.47-1.12.86-1.87,2.42-1,3.71,1.34,1.89,4.11,2.23,6.17,1.6,2.64-.8,5.38-1.5,8-2.44C184.16,103.61,189.82,100.87,196.32,100Z" style="opacity:0.2"></path><path d="M171.62,92.15a3.08,3.08,0,0,0-1.64-.36,37.88,37.88,0,0,0-15.2,6.36,35.87,35.87,0,0,0-11.16,11.18c-.53.87-1.49,2.34-.91,3.39a3.49,3.49,0,0,0,.89,1,10.56,10.56,0,0,0,3.28,2.14,1.66,1.66,0,0,0,1.71-.15c.31-.34.3-.93-.2-1.67a4.49,4.49,0,0,1-.27-4,10.65,10.65,0,0,1,2.33-3.43,60.51,60.51,0,0,1,9.14-7.81,52.39,52.39,0,0,1,5.84-3.65c2-1.07,4.11-1.79,6.1-2.84" style="fill:#BA68C8;opacity:0.30000000000000004"></path><path d="M229.59,62.85a43,43,0,0,1,30.2-6.67,3,3,0,0,1,1.58.56c3.59,3-2.52,12.53-4.28,15.23a52,52,0,0,1-15.73,15.28,67.86,67.86,0,0,1-18.57,8c-2.36.64-5.23,1.85-7.62,1-3.06-1.12-3.31-4.1-3.11-7C212.75,78.93,221.27,68.42,229.59,62.85Z" style="fill:#BA68C8"></path><path d="M229.59,62.85a43,43,0,0,1,30.2-6.67,3,3,0,0,1,1.58.56c3.59,3-2.52,12.53-4.28,15.23a52,52,0,0,1-15.73,15.28,67.86,67.86,0,0,1-18.57,8c-2.36.64-5.23,1.85-7.62,1-3.06-1.12-3.31-4.1-3.11-7C212.75,78.93,221.27,68.42,229.59,62.85Z" style="opacity:0.1"></path><path d="M216.35,91.19c-1-2.56,2-5.52,3.54-7.19a81,81,0,0,1,9.49-9c2.79-2.17,6-5.14,9.55-5.91,1.38-.3,3.06.13,3.45,1.67.57,2.24-1,4.57-2.77,5.74-2.31,1.5-4.62,3.14-7,4.53C227,84.25,221.21,86.8,216.35,91.19Z" style="opacity:0.2"></path><path d="M226.31,67.27a3.14,3.14,0,0,1,.79-1.48,37.76,37.76,0,0,1,14.67-7.49A35.92,35.92,0,0,1,257.52,57c1,.17,2.74.39,3.17,1.5a3.34,3.34,0,0,1,.15,1.3,10.65,10.65,0,0,1-.48,3.89c-.31.76-.78,1.17-1.22,1.2s-.91-.37-1.15-1.23a4.5,4.5,0,0,0-2.89-2.8,10.59,10.59,0,0,0-4.12-.43,59.28,59.28,0,0,0-11.86,1.93,55.58,55.58,0,0,0-6.56,2.09c-2.1.82-4,2-6.12,2.83" style="fill:#BA68C8;opacity:0.30000000000000004"></path><path d="M204.42,87.39a7.83,7.83,0,0,1,3.72-1.06,7.25,7.25,0,0,1,3.26.81,6.16,6.16,0,0,1,2.48,2.3c1.49,2.15,3,4.4,3.48,7a9.38,9.38,0,0,1-3.51,8.94,6.72,6.72,0,0,1-1.86,1,6.3,6.3,0,0,1-2.75.29c-3.31-.54-5.73-3.19-7.76-5.86-1.83-2.4-3.3-5.55-2.23-8.38a8.72,8.72,0,0,1,3.58-4.08C203.36,88,203.88,87.68,204.42,87.39Z" style="fill:#BA68C8"></path><path d="M204.42,87.39a7.83,7.83,0,0,1,3.72-1.06,7.25,7.25,0,0,1,3.26.81,6.16,6.16,0,0,1,2.48,2.3c1.49,2.15,3,4.4,3.48,7a9.38,9.38,0,0,1-3.51,8.94,6.72,6.72,0,0,1-1.86,1,6.3,6.3,0,0,1-2.75.29c-3.31-.54-5.73-3.19-7.76-5.86-1.83-2.4-3.3-5.55-2.23-8.38a8.72,8.72,0,0,1,3.58-4.08C203.36,88,203.88,87.68,204.42,87.39Z" style="opacity:0.2"></path><path d="M210.3,91.14a8.52,8.52,0,0,0-3.11-4.24l-.5-.38a9.19,9.19,0,0,0-2.27.87c-.54.29-1.06.62-1.59,1a8.72,8.72,0,0,0-3.58,4.08c-1.07,2.83.4,6,2.23,8.38,2,2.67,4.45,5.32,7.76,5.86a5.66,5.66,0,0,0,2.08-.11,5.63,5.63,0,0,1-2.7-2.06c-1.25-1.95-.59-4.52.28-6.67S210.85,93.39,210.3,91.14Z" style="opacity:0.2"></path><path d="M200.48,108.49a12.74,12.74,0,0,0,5.75-.27,23.81,23.81,0,0,0,4.91-1.64,8.64,8.64,0,0,1-4.65-3.16c-1.94-2.7-1.18-5.45,0-8.26,1.35-3.32,2.54-7.63-2.05-9-2.77-.8-6.48.64-8.38,2.7C190.85,94.53,192.12,106.51,200.48,108.49Z" style="fill:#BA68C8"></path><path d="M200.48,108.49a12.74,12.74,0,0,0,5.75-.27,23.81,23.81,0,0,0,4.91-1.64,8.64,8.64,0,0,1-4.65-3.16c-1.94-2.7-1.18-5.45,0-8.26,1.35-3.32,2.54-7.63-2.05-9-2.77-.8-6.48.64-8.38,2.7C190.85,94.53,192.12,106.51,200.48,108.49Z" style="opacity:0.1"></path></g></g></g></g><g id="freepik--Hearts--inject-252"><g id="freepik--hearts--inject-252"><path d="M388.36,222.06c8.06-2.58,15.47,4.46,15.08,15.43,4.32-10.09,14-13.3,20.22-7.53s.41,25.49-26.43,35.28C377.13,245,380.31,224.65,388.36,222.06Z" style="fill:#BA68C8"></path><path d="M385.4,131.7c6.14-3.63,13.55.78,15.27,9.87,1.67-9.1,9.06-13.55,15.22-10s5.1,20.89-15.15,33.95C380.42,152.61,379.25,135.33,385.4,131.7Z" style="fill:#BA68C8"></path><path d="M385.4,131.7c6.14-3.63,13.55.78,15.27,9.87,1.67-9.1,9.06-13.55,15.22-10s5.1,20.89-15.15,33.95C380.42,152.61,379.25,135.33,385.4,131.7Z" style="fill:#fff;opacity:0.30000000000000004"></path><path d="M445,177.38c5.78-.81,10,4.85,8.44,12.26,4.12-6.35,11.1-7.39,14.63-2.74s-2.71,17.38-22.12,20.89C434.63,191.62,439.17,178.2,445,177.38Z" style="fill:#BA68C8"></path><path d="M445,177.38c5.78-.81,10,4.85,8.44,12.26,4.12-6.35,11.1-7.39,14.63-2.74s-2.71,17.38-22.12,20.89C434.63,191.62,439.17,178.2,445,177.38Z" style="fill:#fff;opacity:0.6000000000000001"></path></g><g id="freepik--hearts--inject-252"><path d="M132.67,195.84c-9.21-2.09-16.76,6.45-15.26,18.6-5.78-10.79-16.88-13.42-23.19-6.4s2,28.37,32.79,36.64C147.38,220.18,141.87,197.93,132.67,195.84Z" style="fill:#BA68C8"></path><path d="M132.67,195.84c-9.21-2.09-16.76,6.45-15.26,18.6-5.78-10.79-16.88-13.42-23.19-6.4s2,28.37,32.79,36.64C147.38,220.18,141.87,197.93,132.67,195.84Z" style="fill:#fff;opacity:0.30000000000000004"></path><path d="M93.38,97.25c-6.94-1.68-12.74,4.7-11.73,13.9-4.26-8.22-12.62-10.33-17.47-5.09s1.22,21.46,24.4,28.05C104.24,115.8,100.31,98.93,93.38,97.25Z" style="fill:#BA68C8"></path><path d="M93.38,97.25c-6.94-1.68-12.74,4.7-11.73,13.9-4.26-8.22-12.62-10.33-17.47-5.09s1.22,21.46,24.4,28.05C104.24,115.8,100.31,98.93,93.38,97.25Z" style="fill:#fff;opacity:0.6000000000000001"></path><path d="M55,167.45c-5.73-1.12-10.24,4.3-9.08,11.79-3.78-6.57-10.69-8-14.46-3.53s1.77,17.51,21,22C64.58,182.22,60.76,168.57,55,167.45Z" style="fill:#BA68C8"></path></g></g></svg>
